<svg width="30" height="30" viewBox="0 0 30 30" fill="none" xmlns="http://www.w3.org/2000/svg">
<rect width="30" height="30" rx="5" fill="#F0F0F0"/>
<path d="M13.2039 8.59766L11.4765 7.31289C11.0683 7.01211 10.5785 6.84883 10.0715 6.84883H5.3363C4.62302 6.84883 4.04724 7.42461 4.04724 8.13789V23.1555H21.4109C22.064 23.1555 22.5883 22.627 22.5883 21.9781V10.3508C22.5883 9.6375 22.0125 9.06172 21.2992 9.06172H14.6133C14.1062 9.06172 13.6121 8.89844 13.2039 8.59766Z" fill="#969696"/>
<path d="M7.30432 10.1746H20.1949C20.5516 10.1746 20.8395 10.4625 20.8395 10.8191V19.4129C20.8395 19.7695 20.5516 20.0574 20.1949 20.0574H7.30432C6.94768 20.0574 6.65979 19.7695 6.65979 19.4129V10.8191C6.65979 10.4625 6.94768 10.1746 7.30432 10.1746Z" fill="#C8C8C8"/>
<path d="M6.44495 11.034H19.3356C19.6922 11.034 19.9801 11.3219 19.9801 11.6785V20.2723C19.9801 20.6289 19.6922 20.9168 19.3356 20.9168H6.44495C6.08831 20.9168 5.80042 20.6289 5.80042 20.2723V11.6785C5.80042 11.3219 6.08831 11.034 6.44495 11.034Z" fill="white"/>
<path d="M7.66091 13.4574L4.04724 23.1512H21.6988C22.2359 23.1512 22.7172 22.816 22.9062 22.3133L25.8711 14.3555C26.1847 13.5133 25.5617 12.6152 24.6636 12.6152H8.86834C8.33123 12.6195 7.84998 12.9504 7.66091 13.4574Z" fill="#DBDBDB"/>
</svg>
